<svg id="Layer_1" enable-background="new 0 0 511.976 511.976" height="512" viewBox="0 0 511.976 511.976" width="512" xmlns="http://www.w3.org/2000/svg"><g><path d="m255.988 389.663c-37.894 0-72.949-17.218-96.177-47.239l-23.727 18.358c28.953 37.419 72.656 58.88 119.904 58.88 47.249 0 90.952-21.461 119.905-58.88l-23.728-18.358c-23.228 30.021-58.283 47.239-96.177 47.239z"/><path d="m436.999 74.977c-48.35-48.35-112.634-74.977-181.011-74.977s-132.661 26.627-181.011 74.977-74.977 112.634-74.977 181.011 26.627 132.661 74.977 181.011 112.634 74.977 181.011 74.977 132.661-26.627 181.011-74.977 74.977-112.634 74.977-181.011-26.628-132.661-74.977-181.011zm-21.214 340.808c-42.684 42.684-99.434 66.19-159.797 66.19s-117.114-23.507-159.797-66.19c-42.684-42.683-66.191-99.433-66.191-159.797 0-60.363 23.507-117.114 66.19-159.797s99.435-66.191 159.798-66.191 117.114 23.507 159.797 66.19 66.19 99.434 66.19 159.797c.001 60.365-23.506 117.115-66.19 159.798z"/><path d="m160.982 244.157c16.267 0 29.5-13.233 29.5-29.5s-13.233-29.5-29.5-29.5-29.5 13.233-29.5 29.5 13.233 29.5 29.5 29.5z"/><path d="m350.994 185.157c-16.267 0-29.5 13.233-29.5 29.5s13.233 29.5 29.5 29.5 29.5-13.233 29.5-29.5-13.234-29.5-29.5-29.5z"/></g></svg>